<svg xmlns="http://www.w3.org/2000/svg" version="1.1" xmlns:xlink="http://www.w3.org/1999/xlink" xmlns:svgjs="http://svgjs.com/svgjs" width="1000" height="1000"><rect width="1000" height="1000" rx="350" ry="350" fill="#ffffff"></rect><g transform="matrix(0.9067251806649923,0,0,0.9067251806649923,239.78020263402078,0.0022214823762851665)"><svg xmlns="http://www.w3.org/2000/svg" version="1.1" xmlns:xlink="http://www.w3.org/1999/xlink" xmlns:svgjs="http://svgjs.com/svgjs" width="573.98" height="1102.87"><svg data-bbox="0.006 0.013 573.995 1102.892" viewBox="0 0 573.98 1102.87" xmlns="http://www.w3.org/2000/svg" data-type="ugc">
    <g>
        <path d="M175.04 309.26l11.42 28.75c-39.12-11.84-60 67.91-91.93 42.45 8.91 26.6-21.57 37.47-2.46 56.71-26.49-9.93-75.9-74.63-66.24-109.29 12.72-45.61 58.06-80.74 99.36-102.67 39.24-20.83 74.87-34.47 120.08-39.14-4.85-4-8.87-7.36-12.87-10.72-42.66-35.82-49.91-92.7-17.52-137.51 31.53-43.62 107.58-51 147.08-14.36 28.75 26.71 33.6 77.53 10.26 111.91-7.6 11.19-16.33 21.63-24.53 32.42-3.81 5-6.46 10.4-.08 15.07s11.79.36 14.68-4.57c9.41-16.07 18-32.59 26.85-49 1.5-2.77 2.6-5.75 4.71-8.42 4.64 25-2.61 48.06-11.32 71.43l16.44-21.61 2.15.69c-1.62 7.82-3.23 15.64-4.39 21.26 25.48 10.25 45.67 21.69 69.59 34.17 37.56 19.6 72.86 49.68 84.45 92.74s-16.56 67.89-69.55 107.64c8.79-17.92-2.13-31.71 6.26-58.2-31.36 25.39-62.49-55-101.91-42.22 4.23-10 7.71-18.26 11.2-26.5-32.35 31.67-72.39 45.74-111.54 55.86-7-4.13-11.34-7.76-16.38-9.49-17.49-6-35.36-11-52.8-17.14-19.93-6.97-26.33-3.15-41.01-20.26zm117.89-127.2c-18.44-21.64-27.16-45.66-22.71-73.55-9.71 19-9.22 38.13-.45 57.49l-3 1.18-20.95-27.55c-.37 24.39 17.68 41.26 47.1 42.43zm38.25-21.17c6.35-8.35 12.69-16.86 19.23-25.23 4.15-5.31 9-10.14 12.81-15.66 6.67-9.62 7.67-17.79 4-25.94-5.5 16.85-6.05 17.19-21.05 29.83-12.43 10.48-22.83 27-14.99 37z"></path>
        <path d="M217.92 1066.44c2.2 2.43 11.53 4.93 14.32 6.72 6.53 4.21 6.2 2.72 12.28-1.26 2-1.3 4.07-2.43 7.21-4.29-1.07 3-1.78 5.08-2.51 7.14 10.45-3.22 18.05-17.58 20.18-26.72 3.06-13.21 2.08-20.9-7.4-28.42.18 2 .32 3.73.47 5.49-6-2.68-10.71-10.65-14.75-19.93 26.5 8.28 39.75 11.59 81.14-3.32-5.18 6.8-8.29 17.91-13.15 24.29l-1.69-.94.67-5.53c-18.57 13.63-16 33.22 1.08 48.27 2.37 2.08 4.91 4 8.67 6.94l-3.33-8.67c4.52 2.35 8.21 4.11 11.73 6.14 4.44 2.57 6.48 5.19 9.56 1.26s8-3.86 16.27-10.49c9.94-6.62 18.71-12.71 26.5-19.87-8.28 11.59-13.25 21.53-28.15 36.43-11.6 13.21-31.98 20.21-50.92 22.21-17.09 1.76-34.16 1.43-50.92-2.58-12-2.88-48.86-26.21-63.76-54.36.44-.4 16.79 10.74 26.5 21.49z"></path>
        <path d="M525.92 700.47c1.66-38.09 9.94-91.08 6.5-122 .13-.57-5.15 2.51-8.49 4.13.45-55.41-3.62-108.27-22.85-160.36 19.28-20.26 36.44-29.81 57-66.54 39.05 61.6-2.35 270.25-32.16 344.77z"></path>
        <path d="M44.04 695.5c-21.53-46.37-67.89-246.74-29-331.87.3-1.15 1.18-2.16 2.71-4.89 4.09 30.44 41.2 63.53 61.07 78.43-20.9 49.58-34.78 94.39-28.07 141.82a18.76 18.76 0 0 1-.51 2.72c-2.26-1-11.17-7.09-11.17-7.09s3.31 76.17 4.97 120.88z"></path>
        <path d="M65.57 622.64c19.51-21.07 39.74-43.06 58-43.06 9 0 23.27 8.33 36.43 13.25 13.38 5 25.63 6.61 29.8 8.28 23.6 1.86 33.27 6.36 39.75 11.59s-.08 19.07 2.86 24.33c-17.81-6.47-43.56-8-59.17-12.74-21.34-6.52-26.16-5.53-48-9.93-21.29-4.28-40.06-1.88-59.67 8.28z"></path>
        <path d="M511.04 619.02c-.74.38-1.17.76-1.36.67-41.79-20.79-56.6 1.29-94.69 4.6s-62.52 9.75-81.14 16.56c5.37-11.81-5-29.8 6.63-33.12s29.63-5.6 48-6.62c14.16-.78 39-14 53-16.56 24.14-4.38 32.18.63 49.68 16.56 3.61 3.3 16.1 14.53 19.88 17.91z"></path>
        <path d="M360.33 943.89s-33.12 13.25-46.37 13.25-27.68-.77-27.68-.77-19.39 2.43-25.31 2.43-53-13.25-53-13.25 41.4 11.59 54.65 11.59a56.9 56.9 0 0 0 23.18-5s6.62 3.32 24.84 3.32 49.69-11.57 49.69-11.57z"></path>
        <path d="M204.67 943.89s46.36-13.24 56.3-13.24 29.81 8.24 29.81 8.24 13.25-8.28 19.87-8.28 54.65 8.28 54.65 8.28-39.75-5-53-3.31-16.55 6.62-21.52 6.62-18.22-8.28-34.78-8.28-51.33 9.97-51.33 9.97z"></path>
        <path d="M242.82 824.96a9 9 0 0 1 .36-1.37c.27-.89.67-2.19 1.19-3.87l.87-2.79c.3-1 .62-2.14 1-3.34.69-2.4 1.52-5.12 2.28-8.16q.6-2.28 1.25-4.77c.43-1.66.81-3.4 1.24-5.2.89-3.58 1.65-7.45 2.51-11.51 1.58-8.15 3.06-17.16 4.18-26.67s1.68-18.63 2-26.93c.09-4.15.23-8.09.18-11.78v-5.34c0-1.71-.09-3.36-.13-4.93 0-3.14-.24-6-.36-8.47-.06-1.24-.12-2.4-.18-3.47s-.15-2-.22-2.91c-.11-1.76-.21-3.12-.27-4a9.51 9.51 0 0 1 0-1.42 8.89 8.89 0 0 1 .21 1.4l.42 4c.09.87.19 1.85.29 2.91s.16 2.23.25 3.48c.16 2.49.39 5.32.48 8.47.06 1.57.12 3.22.19 4.93s0 3.51.07 5.36c.08 3.7 0 7.65-.11 11.81-.27 8.31-.86 17.45-1.94 27s-2.63 18.57-4.25 26.73c-.88 4.06-1.67 7.94-2.59 11.52-.44 1.8-.84 3.54-1.29 5.2s-.88 3.24-1.3 4.76c-.8 3-1.67 5.75-2.4 8.14-.37 1.19-.71 2.31-1 3.33l-.94 2.77-1.33 3.82a9.7 9.7 0 0 1-.66 1.3z" stroke-width=".41" stroke="#000000" stroke-miterlimit="10"></path>
        <path d="M227.85 859.34s.18-.05.55-.09.91-.09 1.63-.13a26.87 26.87 0 0 1 6.24.65 39.84 39.84 0 0 1 9.33 3.44 94.59 94.59 0 0 1 11.16 6.95c4 2.8 8.18 6.05 13.11 8.87a54.22 54.22 0 0 0 7.89 3.78 33.13 33.13 0 0 0 8.95 2.1 21.76 21.76 0 0 0 9.44-1.25 27.67 27.67 0 0 0 8.49-5.31c2.61-2.26 5-4.86 7.54-7.45a58.52 58.52 0 0 1 8.26-7.37 23 23 0 0 1 10.37-4.09 102.89 102.89 0 0 1 10.7-.43 23.94 23.94 0 0 0 9.77-1.94 16.21 16.21 0 0 0 6.78-6.49 22 22 0 0 0 2.81-8.63 29.2 29.2 0 0 0-.43-8.64 61.94 61.94 0 0 0-5.28-14.8 102.16 102.16 0 0 0-12.12-19.36c-1.68-2.12-3.08-3.7-4-4.78a13.2 13.2 0 0 1-1.41-1.67 2.73 2.73 0 0 1 .42.36q.4.38 1.17 1.14c1 1 2.45 2.56 4.2 4.65A96.76 96.76 0 0 1 356 818.13a61.89 61.89 0 0 1 5.5 15 30.21 30.21 0 0 1 .51 9 23.08 23.08 0 0 1-2.91 9.08 17.3 17.3 0 0 1-7.25 7 25 25 0 0 1-10.24 2.09c-3.51.13-7.07 0-10.57.44a21.79 21.79 0 0 0-9.84 3.89c-6 4.21-10.35 10.11-15.71 14.72a29 29 0 0 1-8.87 5.51 23.05 23.05 0 0 1-9.94 1.27 33.59 33.59 0 0 1-9.24-2.22 55.25 55.25 0 0 1-8-3.91 159.24 159.24 0 0 1-13.11-9 97 97 0 0 0-11-7.05 41 41 0 0 0-9.11-3.58 33 33 0 0 0-8.37-1.03z" stroke-width=".62" stroke="#000000" stroke-miterlimit="10"></path>
        <path d="M223.94 857.94h-.58a8.73 8.73 0 0 1-1.61-.44 12.38 12.38 0 0 1-5-3.54 16.76 16.76 0 0 1-3.77-8.22 33 33 0 0 1 .18-11.06 43.74 43.74 0 0 1 7.75-18.39 41 41 0 0 1 4-4.62 10.47 10.47 0 0 1 1.68-1.46 13.05 13.05 0 0 1-1.45 1.68 55.64 55.64 0 0 0-3.71 4.74 46.65 46.65 0 0 0-4.31 7.77 44.69 44.69 0 0 0-3.1 10.41 32.92 32.92 0 0 0-.24 10.8 16.44 16.44 0 0 0 3.46 8 13.1 13.1 0 0 0 4.64 3.62c1.28.51 2.07.66 2.06.71z" stroke-width=".41" stroke="#000000" stroke-miterlimit="10"></path>
        <path d="M364.04 945.19s-1 2.69-3.4 7.34a117.78 117.78 0 0 1-11.79 18.62 119.06 119.06 0 0 1-10 11.46 101 101 0 0 1-13.3 11.35 71.14 71.14 0 0 1-17.09 9 72.65 72.65 0 0 1-20.31 4.1 73.65 73.65 0 0 1-38.77-8.32 72.37 72.37 0 0 1-14.29-10 92.53 92.53 0 0 1-10.38-11.16 125.84 125.84 0 0 1-12-18.47c-2.47-4.59-3.65-7.22-3.65-7.22s.1.16.26.47l.71 1.39c.62 1.22 1.56 3 2.82 5.29a129.73 129.73 0 0 0 12.11 18.36 93.21 93.21 0 0 0 10.39 11.08 72.34 72.34 0 0 0 14.24 10 73.51 73.51 0 0 0 38.57 8.24 72.29 72.29 0 0 0 20.2-4.07 70.72 70.72 0 0 0 17-8.94 100.94 100.94 0 0 0 13.27-11.28 117.9 117.9 0 0 0 10.06-11.4 120.87 120.87 0 0 0 11.88-18.52c1.2-2.3 2.07-4.13 2.65-5.37l.65-1.42c.17-.37.17-.53.17-.53z" stroke-width=".2" stroke="#000000" stroke-miterlimit="10"></path>
        <path d="M402.66 1015.38a4.23 4.23 0 0 1 .56-1c.4-.65 1-1.61 1.8-2.83l6.73-10.35c5.66-8.75 13.33-20.93 21.39-34.64s15-26.34 19.85-35.55l5.77-10.91c.68-1.29 1.22-2.28 1.6-2.95a3.84 3.84 0 0 1 .63-1 4.17 4.17 0 0 1-.41 1.1c-.31.7-.78 1.73-1.39 3.06-1.23 2.64-3.08 6.44-5.43 11.1-4.7 9.31-11.5 22-19.56 35.76s-15.87 25.86-21.73 34.5c-2.92 4.32-5.33 7.78-7 10.14a141.9 141.9 0 0 1-2 2.7 4.2 4.2 0 0 1-.81.87z" stroke-width=".62" stroke="#000000" stroke-miterlimit="10"></path>
        <path d="M108.95 920.99a10.53 10.53 0 0 1-1-1.6c-.62-1.08-1.51-2.67-2.63-4.74-2.24-4.14-5.4-10.18-9.07-17.76A538 538 0 0 1 53.98 772.6c-1.67-8.26-2.86-15-3.6-19.61-.34-2.33-.61-4.14-.79-5.37a9.37 9.37 0 0 1-.19-1.88 11.31 11.31 0 0 1 .43 1.84c.24 1.22.58 3 1 5.32.88 4.62 2.2 11.3 4 19.51a590.46 590.46 0 0 0 42.21 124.11c3.56 7.61 6.6 13.7 8.7 17.91 1.06 2.1 1.87 3.73 2.43 4.84a10.38 10.38 0 0 1 .78 1.72z" stroke-width=".62" stroke="#000000" stroke-miterlimit="10"></path>
    </g>
</svg></svg></g></svg>