<?xml version="1.0" encoding="utf-8"?>
<!-- Generator: Adobe Illustrator 25.2.3, SVG Export Plug-In . SVG Version: 6.00 Build 0)  -->
<svg version="1.1" id="Layer_1" xmlns="http://www.w3.org/2000/svg" xmlns:xlink="http://www.w3.org/1999/xlink" x="0px" y="0px"
	 viewBox="0 0 574 1102.9" style="enable-background:new 0 0 574 1102.9;" xml:space="preserve">
<style type="text/css">
	.st0{fill:#FFFFFF;stroke:#595959;stroke-miterlimit:10;}
</style>
<g id="Layer_2_1_">
	<g id="Layer_1-2">
		<path class="st0" d="M175,309.2l11.4,28.8c-39.1-11.8-60,67.9-91.9,42.5c8.9,26.6-21.6,37.5-2.5,56.7
			c-26.5-9.9-75.9-74.6-66.2-109.3c12.7-45.6,58.1-80.7,99.4-102.7c39.2-20.8,74.9-34.5,120.1-39.1c-4.9-4-8.9-7.4-12.9-10.7
			c-42.7-35.8-49.9-92.7-17.5-137.5c31.5-43.6,107.6-51,147.1-14.4c28.8,26.7,33.6,77.5,10.3,111.9c-7.6,11.2-16.3,21.6-24.5,32.4
			c-3.8,5-6.5,10.4-0.1,15.1s11.8,0.4,14.7-4.6c9.4-16.1,18-32.6,26.9-49c1.5-2.8,2.6-5.8,4.7-8.4c4.6,25-2.6,48.1-11.3,71.4
			l16.4-21.6l2.1,0.7c-1.6,7.8-3.2,15.6-4.4,21.3c25.5,10.2,45.7,21.7,69.6,34.2c37.6,19.6,72.9,49.7,84.5,92.7
			s-16.6,67.9-69.6,107.6c8.8-17.9-2.1-31.7,6.3-58.2c-31.4,25.4-62.5-55-101.9-42.2c4.2-10,7.7-18.3,11.2-26.5
			c-32.4,31.7-72.4,45.7-111.5,55.9c-7-4.1-11.3-7.8-16.4-9.5c-17.5-6-35.4-11-52.8-17.1C196.1,322.5,189.7,326.4,175,309.2
			L175,309.2z M292.9,182.1c-18.4-21.6-27.2-45.7-22.7-73.6c-9.7,19-9.2,38.1-0.5,57.5l-3,1.2l-20.9-27.6
			C245.4,164,263.5,180.9,292.9,182.1L292.9,182.1z M331.1,160.9c6.4-8.4,12.7-16.9,19.2-25.2c4.1-5.3,9-10.1,12.8-15.7
			c6.7-9.6,7.7-17.8,4-25.9c-5.5,16.8-6,17.2-21,29.8C333.8,134.4,323.4,150.9,331.1,160.9L331.1,160.9z"/>
		<path class="st0" d="M217.9,1066.4c2.2,2.4,11.5,4.9,14.3,6.7c6.5,4.2,6.2,2.7,12.3-1.3c2-1.3,4.1-2.4,7.2-4.3
			c-1.1,3-1.8,5.1-2.5,7.1c10.5-3.2,18-17.6,20.2-26.7c3.1-13.2,2.1-20.9-7.4-28.4c0.2,2,0.3,3.7,0.5,5.5
			c-6-2.7-10.7-10.7-14.8-19.9c26.5,8.3,39.8,11.6,81.1-3.3c-5.2,6.8-8.3,17.9-13.1,24.3l-1.7-0.9l0.7-5.5
			c-18.6,13.6-16,33.2,1.1,48.3c2.4,2.1,4.9,4,8.7,6.9l-3.3-8.7c4.5,2.3,8.2,4.1,11.7,6.1c4.4,2.6,6.5,5.2,9.6,1.3s8-3.9,16.3-10.5
			c9.9-6.6,18.7-12.7,26.5-19.9c-8.3,11.6-13.2,21.5-28.1,36.4c-11.6,13.2-32,20.2-50.9,22.2c-17.1,1.8-34.2,1.4-50.9-2.6
			c-12-2.9-48.9-26.2-63.8-54.4C191.9,1044.5,208.2,1055.7,217.9,1066.4L217.9,1066.4z"/>
		<path class="st0" d="M525.9,700.5c1.7-38.1,9.9-91.1,6.5-122c0.1-0.6-5.2,2.5-8.5,4.1c0.5-55.4-3.6-108.3-22.9-160.4
			c19.3-20.3,36.4-29.8,57-66.5C597.1,417.3,555.7,625.9,525.9,700.5z"/>
		<path class="st0" d="M44,695.5c-21.5-46.4-67.9-246.7-29-331.9c0.3-1.1,1.2-2.2,2.7-4.9c4.1,30.4,41.2,63.5,61.1,78.4
			C57.9,486.7,44,531.5,50.7,579c-0.1,0.9-0.3,1.8-0.5,2.7c-2.3-1-11.2-7.1-11.2-7.1S42.4,650.8,44,695.5L44,695.5z"/>
		<path class="st0" d="M65.6,622.6c19.5-21.1,39.7-43.1,58-43.1c9,0,23.3,8.3,36.4,13.2c13.4,5,25.6,6.6,29.8,8.3
			c23.6,1.9,33.3,6.4,39.8,11.6s-0.1,19.1,2.9,24.3c-17.8-6.5-43.6-8-59.2-12.7c-21.3-6.5-26.2-5.5-48-9.9
			C103.9,610.1,85.2,612.5,65.6,622.6L65.6,622.6z"/>
		<path class="st0" d="M511,619c-0.7,0.4-1.2,0.8-1.4,0.7c-41.8-20.8-56.6,1.3-94.7,4.6s-62.5,9.8-81.1,16.6
			c5.4-11.8-5-29.8,6.6-33.1s29.6-5.6,48-6.6c14.2-0.8,39-14,53-16.6c24.1-4.4,32.2,0.6,49.7,16.6C494.7,604.4,507.2,615.6,511,619
			L511,619z"/>
		<path class="st0" d="M360.3,943.9c0,0-33.1,13.2-46.3,13.2s-27.7-0.8-27.7-0.8s-19.4,2.4-25.3,2.4s-53-13.2-53-13.2
			s41.4,11.6,54.6,11.6c8,0,15.9-1.7,23.2-5c0,0,6.6,3.3,24.8,3.3S360.3,943.9,360.3,943.9z"/>
		<path class="st0" d="M204.7,943.9c0,0,46.3-13.2,56.3-13.2s29.8,8.2,29.8,8.2s13.2-8.3,19.9-8.3s54.6,8.3,54.6,8.3s-39.8-5-53-3.3
			s-16.5,6.6-21.5,6.6s-18.2-8.3-34.8-8.3S204.7,943.9,204.7,943.9L204.7,943.9z"/>
		<path class="st0" d="M242.8,825c0.1-0.5,0.2-0.9,0.4-1.4c0.3-0.9,0.7-2.2,1.2-3.9l0.9-2.8c0.3-1,0.6-2.1,1-3.3
			c0.7-2.4,1.5-5.1,2.3-8.2c0.4-1.5,0.8-3.1,1.2-4.8c0.4-1.7,0.8-3.4,1.2-5.2c0.9-3.6,1.6-7.5,2.5-11.5c1.6-8.2,3.1-17.2,4.2-26.7
			s1.7-18.6,2-26.9c0.1-4.2,0.2-8.1,0.2-11.8v-5.3c0-1.7-0.1-3.4-0.1-4.9c0-3.1-0.2-6-0.4-8.5c-0.1-1.2-0.1-2.4-0.2-3.5
			s-0.1-2-0.2-2.9c-0.1-1.8-0.2-3.1-0.3-4c0-0.5,0-0.9,0-1.4c0.1,0.5,0.2,0.9,0.2,1.4l0.4,4c0.1,0.9,0.2,1.8,0.3,2.9
			s0.2,2.2,0.2,3.5c0.2,2.5,0.4,5.3,0.5,8.5c0.1,1.6,0.1,3.2,0.2,4.9s0,3.5,0.1,5.4c0.1,3.7,0,7.7-0.1,11.8
			c-0.3,8.3-0.9,17.5-1.9,27s-2.6,18.6-4.2,26.7c-0.9,4.1-1.7,7.9-2.6,11.5c-0.4,1.8-0.8,3.5-1.3,5.2s-0.9,3.2-1.3,4.8
			c-0.8,3-1.7,5.8-2.4,8.1c-0.4,1.2-0.7,2.3-1,3.3l-0.9,2.8l-1.3,3.8C243.3,824.2,243.1,824.6,242.8,825L242.8,825z"/>
		<path class="st0" d="M227.8,859.3c0.2,0,0.4-0.1,0.6-0.1c0.4,0,0.9-0.1,1.6-0.1c2.1,0,4.2,0.2,6.2,0.7c3.2,0.8,6.4,1.9,9.3,3.4
			c3.9,2,7.6,4.4,11.2,7c4,2.8,8.2,6,13.1,8.9c2.5,1.5,5.2,2.7,7.9,3.8c2.9,1.1,5.9,1.8,9,2.1c3.2,0.3,6.4-0.1,9.4-1.2
			c3.1-1.2,6-3,8.5-5.3c2.6-2.3,5-4.9,7.5-7.5c2.5-2.7,5.3-5.2,8.3-7.4c3.1-2.2,6.6-3.6,10.4-4.1c3.6-0.3,7.1-0.5,10.7-0.4
			c3.4,0,6.7-0.6,9.8-1.9c2.8-1.4,5.2-3.7,6.8-6.5c1.5-2.6,2.5-5.6,2.8-8.6c0.3-2.9,0.1-5.8-0.4-8.6c-1.1-5.1-2.9-10.1-5.3-14.8
			c-3.3-6.9-7.4-13.4-12.2-19.4c-1.7-2.1-3.1-3.7-4-4.8c-0.5-0.5-1-1.1-1.4-1.7c0.2,0.1,0.3,0.2,0.4,0.4c0.3,0.3,0.7,0.6,1.2,1.1
			c1,1,2.5,2.6,4.2,4.7c5,5.9,9.2,12.4,12.6,19.3c2.5,4.7,4.3,9.8,5.5,15c0.6,3,0.8,6,0.5,9c-0.3,3.2-1.3,6.3-2.9,9.1
			c-1.7,3-4.2,5.4-7.2,7c-3.2,1.4-6.7,2.1-10.2,2.1c-3.5,0.1-7.1,0-10.6,0.4c-3.6,0.5-6.9,1.8-9.8,3.9c-6,4.2-10.4,10.1-15.7,14.7
			c-2.6,2.4-5.6,4.2-8.9,5.5c-3.2,1.1-6.6,1.6-9.9,1.3c-3.2-0.3-6.3-1-9.2-2.2c-2.8-1.1-5.4-2.4-8-3.9c-4.5-2.8-8.9-5.8-13.1-9
			c-3.5-2.6-7.2-4.9-11-7c-2.9-1.6-5.9-2.8-9.1-3.6C233.5,859.7,230.7,859.4,227.8,859.3L227.8,859.3z"/>
		<path class="st0" d="M223.9,857.9h-0.6c-0.5-0.1-1.1-0.2-1.6-0.4c-1.9-0.7-3.7-2-5-3.5c-2-2.3-3.3-5.2-3.8-8.2
			c-0.6-3.7-0.5-7.4,0.2-11.1c1.1-6.6,3.8-12.9,7.8-18.4c1.2-1.6,2.6-3.2,4-4.6c0.5-0.5,1.1-1,1.7-1.5c-0.4,0.6-0.9,1.2-1.4,1.7
			c-1.3,1.5-2.6,3.1-3.7,4.7c-1.7,2.4-3.1,5-4.3,7.8c-1.5,3.3-2.5,6.8-3.1,10.4c-0.7,3.6-0.8,7.2-0.2,10.8c0.4,2.9,1.6,5.7,3.5,8
			c1.3,1.5,2.8,2.8,4.6,3.6C223.1,857.7,223.9,857.9,223.9,857.9L223.9,857.9z"/>
		<path class="st0" d="M364,945.2c-1,2.5-2.1,5-3.4,7.3c-5.7,11.1-13,21.2-21.8,30.1c-4.1,4.2-8.5,8-13.3,11.4
			c-5.3,3.8-11,6.8-17.1,9c-6.5,2.3-13.4,3.7-20.3,4.1c-19.4,1.3-38.6-5.3-53.1-18.3c-3.8-3.4-7.2-7.2-10.4-11.2
			c-4.5-5.8-8.5-12-12-18.5c-2.5-4.6-3.6-7.2-3.6-7.2s0.1,0.2,0.3,0.5l0.7,1.4c0.6,1.2,1.6,3,2.8,5.3c3.5,6.4,7.6,12.6,12.2,18.3
			c3.2,4,6.6,7.7,10.4,11.1c4.3,3.9,9.1,7.2,14.2,10c11.9,6.2,25.2,9.1,38.6,8.2c6.9-0.4,13.7-1.8,20.2-4.1c6-2.2,11.8-5.2,17-8.9
			c4.7-3.4,9.2-7.1,13.3-11.3c3.6-3.6,6.9-7.4,10-11.4c4.5-5.8,8.5-12,11.9-18.5c1.2-2.3,2.1-4.1,2.6-5.4l0.6-1.4
			C363.9,945.5,364,945.3,364,945.2L364,945.2z"/>
		<path class="st0" d="M402.6,1015.4c0.1-0.4,0.3-0.7,0.6-1c0.4-0.7,1-1.6,1.8-2.8l6.7-10.3c5.7-8.8,13.3-20.9,21.4-34.6
			s15-26.3,19.9-35.5l5.8-10.9c0.7-1.3,1.2-2.3,1.6-3c0.2-0.4,0.4-0.7,0.6-1c-0.1,0.4-0.2,0.8-0.4,1.1c-0.3,0.7-0.8,1.7-1.4,3.1
			c-1.2,2.6-3.1,6.4-5.4,11.1c-4.7,9.3-11.5,22-19.6,35.8s-15.9,25.9-21.7,34.5c-2.9,4.3-5.3,7.8-7,10.1c-0.6,0.9-1.3,1.8-2,2.7
			C403.2,1014.8,403,1015.1,402.6,1015.4z"/>
		<path class="st0" d="M108.9,921c-0.4-0.5-0.7-1-1-1.6c-0.6-1.1-1.5-2.7-2.6-4.7c-2.2-4.1-5.4-10.2-9.1-17.8
			C77.1,857.3,63,815.6,54,772.6c-1.7-8.3-2.9-15-3.6-19.6c-0.3-2.3-0.6-4.1-0.8-5.4c-0.1-0.6-0.2-1.2-0.2-1.9
			c0.2,0.6,0.3,1.2,0.4,1.8c0.2,1.2,0.6,3,1,5.3c0.9,4.6,2.2,11.3,4,19.5c9.4,42.8,23.5,84.4,42.1,124.1c3.6,7.6,6.6,13.7,8.7,17.9
			c1.1,2.1,1.9,3.7,2.4,4.8C108.5,919.8,108.7,920.4,108.9,921z"/>
	</g>
</g>
</svg>
